<?xml version="1.0" encoding="UTF-8" standalone="no"?>
<!DOCTYPE svg PUBLIC "-//W3C//DTD SVG 1.1//EN" "http://www.w3.org/Graphics/SVG/1.1/DTD/svg11.dtd">
<svg width="100%" height="100%" viewBox="0 0 148 26" version="1.1" xmlns="http://www.w3.org/2000/svg" xmlns:xlink="http://www.w3.org/1999/xlink" xml:space="preserve" xmlns:serif="http://www.serif.com/" style="fill-rule:evenodd;clip-rule:evenodd;stroke-linejoin:round;stroke-miterlimit:1.41421;">
    <g id="Logo" transform="matrix(1,0,0,1,-181,-21.9997)">
        <path d="M207.258,48L181,48L181,22L207.258,22L207.258,48ZM193.88,41.07C197.84,41.07 200.774,38.316 200.774,34.554C200.774,30.792 197.84,28.038 193.88,28.038C189.902,28.038 186.986,30.81 186.986,34.554C186.986,38.298 189.902,41.07 193.88,41.07ZM193.88,38.586C191.63,38.586 189.938,36.948 189.938,34.554C189.938,32.16 191.63,30.522 193.88,30.522C196.13,30.522 197.822,32.16 197.822,34.554C197.822,36.948 196.13,38.586 193.88,38.586Z" style="fill:white;"/>
        <path d="M237.694,48L211.435,48L211.435,22L237.694,22L237.694,48ZM224.097,28.254L218.643,28.254L218.643,40.854L221.559,40.854L221.559,37.344L224.241,37.344L226.671,40.854L229.803,40.854L226.977,36.804C228.615,36.102 229.569,34.716 229.569,32.826C229.569,30 227.463,28.254 224.097,28.254ZM223.935,35.022L221.559,35.022L221.559,30.63L223.935,30.63C225.717,30.63 226.617,31.44 226.617,32.826C226.617,34.194 225.717,35.022 223.935,35.022Z" style="fill:white;"/>
        <path d="M268.129,48L241.871,48L241.871,22L268.129,22L268.129,48ZM256.615,28.254L253.699,28.254L253.699,40.854L256.615,40.854L256.615,28.254Z" style="fill:white;"/>
        <path d="M298.565,48L272.306,48L272.306,22L298.565,22L298.565,48ZM285.633,41.07C289.593,41.07 292.527,38.316 292.527,34.554C292.527,30.792 289.593,28.038 285.633,28.038C281.655,28.038 278.739,30.81 278.739,34.554C278.739,38.298 281.655,41.07 285.633,41.07ZM285.633,38.586C283.383,38.586 281.691,36.948 281.691,34.554C281.691,32.16 283.383,30.522 285.633,30.522C287.883,30.522 289.575,32.16 289.575,34.554C289.575,36.948 287.883,38.586 285.633,38.586Z" style="fill:white;"/>
        <path d="M329,48L302.742,48L302.742,22L329,22L329,48ZM312.087,28.254L309.675,28.254L309.675,40.854L312.555,40.854L312.555,33.204L318.837,40.854L321.231,40.854L321.231,28.254L318.351,28.254L318.351,35.904L312.087,28.254Z" style="fill:white;"/>
    </g>
</svg>
