<?xml version="1.0" encoding="UTF-8" standalone="no"?>
<!DOCTYPE svg PUBLIC "-//W3C//DTD SVG 1.1//EN" "http://www.w3.org/Graphics/SVG/1.1/DTD/svg11.dtd">
<svg width="100%" height="100%" viewBox="0 0 61 60" version="1.1" xmlns="http://www.w3.org/2000/svg" xmlns:xlink="http://www.w3.org/1999/xlink" xml:space="preserve" xmlns:serif="http://www.serif.com/" style="fill-rule:evenodd;clip-rule:evenodd;stroke-linejoin:round;stroke-miterlimit:1.41421;">
    <g id="Rocket" transform="matrix(1,0,0,1,-644.022,-174)">
        <path d="M669.438,234.014C669.24,234.014 669.041,233.982 668.849,233.922C668.218,233.72 667.74,233.208 667.588,232.575L665.274,222.951L660.977,218.267C658.916,216.017 657.629,214.613 656.856,213.675L645.512,211.125C644.857,210.979 644.33,210.502 644.126,209.872C643.921,209.244 644.068,208.556 644.514,208.061L651.483,200.633C651.844,200.233 652.361,200.004 652.905,200.004L663.481,200.004C664.139,198.841 664.915,197.319 665.726,195.727C667.827,191.603 670.208,186.637 672.603,183.89C675.476,180.594 678.555,178.419 682.294,177.046C692.529,173.287 703.169,174.05 703.169,174.05C704.118,174.119 704.87,174.867 704.928,175.8C704.959,176.292 705.639,187.938 702.445,196.39C701.103,199.944 699.737,202.348 695.984,205.627C693.32,207.957 686.894,210.902 682.589,213.268C681.009,214.137 679.331,215.028 678.384,215.607L678.384,225.254C678.384,225.8 678.141,226.318 677.719,226.672L670.675,233.563C670.325,233.858 669.885,234.014 669.438,234.014ZM646.031,233.696L644.163,233.737L644.13,231.826C644.13,222.437 646.052,220.467 650.13,218.467C651.103,217.991 652.108,217.557 653.202,216.732L655.517,219.638C654.133,220.684 652.853,221.31 651.826,221.814C649.379,223.014 648.157,223.69 647.965,229.998C654.613,229.76 655.366,228.133 656.562,225.69C657.028,224.741 657.556,223.662 658.402,222.528L661.221,225.046C660.524,226.186 660.294,226.756 659.881,227.602C657.993,231.458 656.109,233.696 646.031,233.696ZM653.76,203.743L649.488,208.183L658.197,210.142C658.61,210.235 658.976,210.46 659.24,210.776C659.645,211.232 664.927,216.992 668.423,220.803C668.638,221.036 668.789,221.319 668.862,221.624L670.57,228.728L674.581,224.394L674.581,214.623C674.581,214.06 674.839,213.529 675.281,213.175C676.05,212.556 677.805,211.616 680.734,210.006C684.659,207.847 691.103,204.892 693.459,202.833C696.649,200.044 697.709,198.189 698.881,195.089C701.12,189.163 701.252,181.17 701.19,177.723C697.88,177.7 690.639,177.971 683.623,180.548C680.471,181.707 677.96,183.488 675.49,186.323C673.399,188.723 671.03,193.665 669.126,197.402C668.002,199.608 667.031,201.513 666.194,202.852C665.851,203.402 665.243,203.739 664.575,203.743L653.76,203.743ZM685.986,200.106C681.782,200.106 678.36,196.742 678.36,192.608C678.36,188.473 681.782,185.109 685.986,185.109C690.189,185.109 693.611,188.473 693.611,192.608C693.611,196.742 690.189,200.106 685.986,200.106ZM685.985,188.864C683.887,188.864 682.179,190.544 682.179,192.608C682.179,194.671 683.887,196.351 685.985,196.351C688.084,196.351 689.792,194.671 689.792,192.608C689.792,190.544 688.084,188.864 685.985,188.864Z" style="fill:white;"/>
    </g>
</svg>
